<svg width="33" height="32" viewBox="0 0 33 32" fill="none" xmlns="http://www.w3.org/2000/svg">
<path d="M7.52075 26.1765C6.55168 25.1946 6.55168 23.6026 7.52075 22.6207L9.25188 20.8667L14.517 26.3579L11.2234 27.212L7.52075 26.1765Z" fill="url(#paint0_linear_209_784)"/>
<path d="M0.454364 19.2081C-0.151455 18.5943 -0.151455 17.5988 0.454364 16.985L2.89466 14.5125L7.9312 19.6156L0.454364 19.2081Z" fill="url(#paint1_linear_209_784)"/>
<path d="M32.2492 17.8412L19.0263 31.2389C18.0214 32.2537 16.3966 32.2537 15.392 31.2389L2.16916 17.8412C1.16757 16.823 1.16757 15.1767 2.16916 14.1588L15.392 0.761128C16.3969 -0.253709 18.0217 -0.253709 19.0263 0.761128L32.2492 14.1588C33.2507 15.1767 33.2507 16.823 32.2492 17.8412Z" fill="url(#paint2_linear_209_784)"/>
<path opacity="0.28" d="M31.4235 14.2545C28.9115 15.4843 25.1237 15.9833 19.7372 13.5471C12.9316 10.473 6.46212 12.7241 2.28613 15.104C2.37429 14.9321 2.48828 14.7701 2.63205 14.6247L15.8516 1.22703C16.2136 0.863292 16.6966 0.661865 17.2088 0.661865C17.721 0.661865 18.2037 0.863601 18.566 1.23042L31.4235 14.2545Z" fill="url(#paint3_linear_209_784)"/>
<g opacity="0.44">
<path d="M26.503 17.3286L24.5812 24.6043L23.4784 22.7302L20.066 26.1911C19.2699 26.9944 18.3923 27.6886 17.4494 28.2571C16.2226 29.0009 14.8492 29.3413 13.4886 29.3117L11.1885 26.9811C13.7102 26.8388 16.056 25.7812 17.857 23.9566L21.3348 20.4363L19.1815 19.1307L26.503 17.3286Z" fill="url(#paint4_linear_209_784)"/>
<path d="M22.6445 8.66821L20.3868 17.2166L19.0883 15.015L15.0786 19.0744C14.201 19.9635 13.2353 20.7372 12.2075 21.3819C10.5959 22.3899 8.77233 22.8233 6.97767 22.7139L4.3252 20.0264C7.39198 19.9306 10.312 18.658 12.4878 16.453L16.5659 12.3176L14.0408 10.7872L22.6445 8.66821Z" fill="url(#paint5_linear_209_784)"/>
</g>
<path d="M25.8522 16.5044L23.9305 23.7801L22.8247 21.906L19.4123 25.3635C18.6168 26.1695 17.7389 26.8613 16.7978 27.4314C13.8131 29.239 9.97904 28.668 7.52051 26.1766H9.94439C12.6881 26.1766 15.2654 25.0955 17.2066 23.1287L20.681 19.6114L18.531 18.3058L25.8522 16.5044Z" fill="url(#paint6_linear_209_784)"/>
<path d="M21.9931 7.84009L19.7354 16.3918L18.4338 14.1869L14.4241 18.2496C13.5465 19.1388 12.5836 19.9103 11.554 20.5559C8.00663 22.7808 3.40416 22.1972 0.454102 19.2081H3.30233C6.50256 19.2081 9.57178 17.9201 11.8346 15.6271L15.9148 11.4926L13.3897 9.96216L21.9931 7.84009Z" fill="url(#paint7_linear_209_784)"/>
<g opacity="0.5">
<path opacity="0.78" d="M25.3935 16.9556L24.0918 21.8875C23.1228 21.1603 22.0528 20.4793 20.8913 19.8646L21.2077 19.5473L19.3809 18.4367L25.3935 16.9556Z" fill="url(#paint8_linear_209_784)"/>
<path opacity="0.78" d="M21.5339 8.29468L19.6189 15.5504L18.4966 13.6528L14.7416 17.4609C13.8476 17.2163 12.9278 17.0081 11.9849 16.8359C11.7077 16.7864 11.4301 16.7402 11.1562 16.697C11.4693 16.4359 11.773 16.155 12.0633 15.8608L16.4414 11.4279L14.2391 10.0924L21.5339 8.29468Z" fill="url(#paint9_linear_209_784)"/>
</g>
<defs>
<linearGradient id="paint0_linear_209_784" x1="6.79391" y1="24.0391" x2="14.5171" y2="24.0391" gradientUnits="userSpaceOnUse">
<stop stop-color="#B0D1FF"/>
<stop offset="1" stop-color="#4F93FF"/>
</linearGradient>
<linearGradient id="paint1_linear_209_784" x1="-0.000106391" y1="17.064" x2="7.93108" y2="17.064" gradientUnits="userSpaceOnUse">
<stop stop-color="#E8562E"/>
<stop offset="1" stop-color="#4F93FF"/>
</linearGradient>
<linearGradient id="paint2_linear_209_784" x1="17.0878" y1="28.9622" x2="17.4228" y2="-5.91041" gradientUnits="userSpaceOnUse">
<stop stop-color="#E8562E"/>
<stop offset="1" stop-color="#00245B"/>
</linearGradient>
<linearGradient id="paint3_linear_209_784" x1="16.9435" y1="7.10726" x2="16.8319" y2="16.418" gradientUnits="userSpaceOnUse">
<stop stop-color="#F0F0F0"/>
<stop offset="1" stop-color="#B0D1FF"/>
</linearGradient>
<linearGradient id="paint4_linear_209_784" x1="11.1891" y1="23.3211" x2="26.5031" y2="23.3211" gradientUnits="userSpaceOnUse">
<stop stop-color="#E8562E"/>
<stop offset="1" stop-color="#00245B"/>
</linearGradient>
<linearGradient id="paint5_linear_209_784" x1="4.32556" y1="15.6991" x2="22.6443" y2="15.6991" gradientUnits="userSpaceOnUse">
<stop stop-color="#E8562E"/>
<stop offset="1" stop-color="#00245B"/>
</linearGradient>
<linearGradient id="paint6_linear_209_784" x1="7.52048" y1="22.4962" x2="25.8523" y2="22.4962" gradientUnits="userSpaceOnUse">
<stop stop-color="#E8562E"/>
<stop offset="1" stop-color="#00C4F7"/>
</linearGradient>
<linearGradient id="paint7_linear_209_784" x1="0.454345" y1="14.8721" x2="21.9932" y2="14.8721" gradientUnits="userSpaceOnUse">
<stop stop-color="#F0F0F0"/>
<stop offset="1" stop-color="#00C4F7"/>
</linearGradient>
<linearGradient id="paint8_linear_209_784" x1="23.4935" y1="17.2037" x2="19.8906" y2="23.1119" gradientUnits="userSpaceOnUse">
<stop stop-color="#F1F1F1"/>
<stop offset="1" stop-color="#B0D1FF"/>
</linearGradient>
<linearGradient id="paint9_linear_209_784" x1="16.5227" y1="13.3511" x2="12.2671" y2="18.7512" gradientUnits="userSpaceOnUse">
<stop stop-color="#E8562E"/>
<stop offset="1" stop-color="#B0D1FF"/>
</linearGradient>
</defs>
</svg>
